<svg width="43" height="43" fill="none" xmlns="http://www.w3.org/2000/svg"><mask id="mask0" maskUnits="userSpaceOnUse" x="0" y="0" width="43" height="43"><path fill="#C4C4C4" d="M0 0h43v43H0z"/></mask><g mask="url(#mask0)" fill="#fff"><path fill-rule="evenodd" clip-rule="evenodd" d="M42.236 36.897l-1.41-1.881-4.487-9.937a18.726 18.726 0 01-1.662-7.715v-4.768c0-.827-.672-1.5-1.499-1.5-.646 0-1.219.413-1.422 1.026l-1.018 3.052a16.417 16.417 0 01-1.612 3.434l-1.915-3.88a1.543 1.543 0 00-1.386-.857c-.855 0-1.55.695-1.55 1.55v3.368a5.953 5.953 0 01-1.003 3.31 2.293 2.293 0 001.906 3.562c1.325 0 2.531.727 3.15 1.897l4.304 8.126a14.053 14.053 0 01-.791-.344l-7.459-3.533a13.505 13.505 0 00-5.742-1.291c-2.812 0-5.507.864-7.795 2.499l-.24.17c-1.576 1.126-3.856 1.016-5.315-.262L0 28.293v2.058l1.387 1 2.99 2.615a5.672 5.672 0 003.736 1.405c.8 0 1.572-.18 2.29-.497v6.739H0V43h39.185A3.82 3.82 0 0043 39.185a3.83 3.83 0 00-.764-2.288zM32.054 15.613a17.784 17.784 0 01-2.652 5.06 1.376 1.376 0 00-.273.82c0 .562.337 1.06.859 1.268a9.034 9.034 0 013.874 2.97l3.139 4.184-1.926-4.266a20.084 20.084 0 01-1.785-8.285v-4.768a.112.112 0 00-.22-.035l-1.016 3.052zm-8.473 26h15.604a2.43 2.43 0 001.942-3.884l-8.374-11.166a7.653 7.653 0 00-3.28-2.514 2.742 2.742 0 01-1.229-4.13l-.096-.22-2.177-4.35c-.067-.136-.31-.08-.31.073v3.367a7.331 7.331 0 01-1.235 4.08.904.904 0 00.751 1.405c1.84 0 3.518 1.01 4.377 2.636l4.97 9.388c1.185.3 2.405.46 3.621.46v1.387c-2.37 0-4.755-.536-6.898-1.551l-7.459-3.533c-.067-.032-.14-.054-.207-.085v4.476h-1.387v-4.995a12.065 12.065 0 00-3.553-.554c-2.465 0-4.829.746-6.85 2.148v7.562h10.402v-2.774h1.388v2.774z"/><path d="M18.726.792V0h-1.387v.694h-1.387V0h-1.387v.792a2.768 2.768 0 00-1.983 1.982H0v1.387h12.582a2.768 2.768 0 001.982 1.982v.792h1.388v-.693h1.387v.693h1.387v-.792a2.77 2.77 0 002.08-2.675 2.77 2.77 0 00-2.08-2.676zm-4.161 3.87a1.38 1.38 0 01-.694-1.194c0-.511.28-.954.694-1.195v2.388zm2.774.193h-1.387V2.08h1.387v2.774zm1.387-.193V2.273c.413.241.693.684.693 1.195 0 .51-.28.953-.693 1.194zm1.693 12.677a6.36 6.36 0 01-1.693-4.33V8.323h-1.387v4.686a7.74 7.74 0 001.31 4.33H14.64a7.743 7.743 0 001.31-4.33V8.323h-1.386v4.686a6.36 6.36 0 01-1.694 4.33H4.16v2.08c0 4.972 4.045 9.016 9.016 9.016 4.972 0 9.017-4.044 9.017-9.016v-2.08h-1.775zm-7.242 9.71c-3.096 0-5.762-1.858-6.957-4.514.416-.318 1.56-1.035 3.49-1.035 1.153 0 2.668.417 4.271.858 1.73.476 3.65.999 5.617 1.164a7.621 7.621 0 01-6.42 3.526zm7.63-7.63c0 .973-.19 1.9-.524 2.757-2.03-.087-4.095-.649-5.934-1.155-1.697-.467-3.299-.908-4.64-.908-1.892 0-3.21.596-3.95 1.059a7.569 7.569 0 01-.21-1.753v-.693h15.257v.693z"/></g></svg>