<svg width="43" height="43" fill="none" xmlns="http://www.w3.org/2000/svg"><mask id="mask0" maskUnits="userSpaceOnUse" x="0" y="0" width="43" height="43"><path fill="#C4C4C4" d="M0 0h43v43H0z"/></mask><g mask="url(#mask0)" fill="#fff"><path d="M34.064 4.227l1.68.919.918 1.68a.716.716 0 001.257 0l.918-1.68 1.68-.919a.715.715 0 000-1.256l-1.68-.919-.919-1.68a.716.716 0 00-1.256 0l-.919 1.68-1.68.919a.715.715 0 000 1.256zm2.55-1.02a.716.716 0 00.285-.284l.391-.715.391.715c.066.12.165.22.285.285l.715.39-.715.392a.717.717 0 00-.285.284l-.39.715-.392-.715a.716.716 0 00-.284-.284l-.715-.391.715-.391zM.373 17.116l1.679.919.919 1.68a.716.716 0 001.256 0l.919-1.68 1.68-.919a.716.716 0 000-1.256l-1.68-.92-.919-1.679a.716.716 0 00-1.256 0l-.919 1.68-1.68.919a.716.716 0 000 1.256zm2.55-1.02a.716.716 0 00.285-.284l.39-.715.392.715a.72.72 0 00.284.285l.715.39-.714.392a.716.716 0 00-.285.284l-.391.715-.391-.715a.716.716 0 00-.285-.284l-.715-.391.715-.391zm40.005 25.838l-3.916-8.061-.864-2.593-1.36.452.88 2.638c.01.03.021.059.035.087l3.865 7.954v.552H43v-.716a.716.716 0 00-.072-.313z"/><path d="M35.11 35.354a.717.717 0 00-.35-.416L31.835 33.4l-3.47-4.844a1.071 1.071 0 01.995.005l2.441 1.288a.716.716 0 001.003-.889l-3.267-8.565a1.077 1.077 0 01.333-1.338l4.334 5.798.01.015a4.638 4.638 0 01.795 1.52l1.303 3.91 1.359-.453-1.3-3.903a6.065 6.065 0 00-1.026-1.953l-4.667-6.244a.715.715 0 00-.785-.256l-.129.04a2.507 2.507 0 00-1.56 3.39l2.585 6.775-.76-.402a2.503 2.503 0 00-2.903.406l-.225.215a.715.715 0 00-.087.934l3.956 5.523c.065.09.15.165.249.217l2.815 1.48 2.006 6.288v.605h1.432v-.716a.718.718 0 00-.034-.218l-2.129-6.675zm-22.843-.982l3.956-5.522a.716.716 0 00-.087-.934l-.224-.215a2.503 2.503 0 00-2.903-.406l-.76.401 2.583-6.774a2.506 2.506 0 00-1.56-3.39l-.128-.04a.716.716 0 00-.785.255l-4.667 6.245a6.063 6.063 0 00-1.025 1.953l-2.641 7.928-3.917 8.074a.715.715 0 00-.072.312v.704H1.47v-.54l3.865-7.967a.712.712 0 00.036-.086l2.658-7.98a4.637 4.637 0 01.795-1.52l.01-.014 4.334-5.798a1.078 1.078 0 01.334 1.338l-3.268 8.565a.715.715 0 001.003.889l2.441-1.289a1.072 1.072 0 01.995-.004l-3.47 4.844-2.925 1.537a.717.717 0 00-.35.416L5.8 42.029a.717.717 0 00-.033.218v.716h1.432v-.605l2.005-6.29 2.815-1.479a.715.715 0 00.25-.217z"/><path d="M25.84 35.992a.716.716 0 00.55.513l6.445 1.288.28-1.404-6.01-1.202-.96-3.49.103-.084c.327.079.662.118.999.118v-1.432c-1.606 0-2.864-1.357-2.864-3.088a3.137 3.137 0 01.906-2.228.716.716 0 00.073-.924 3.159 3.159 0 01-.597-1.864c0-1.234.699-2.347 1.78-2.836a.716.716 0 00.276-1.085 1.432 1.432 0 011.896-2.081.717.717 0 00.76-.002 2.833 2.833 0 011.51-.438c1.624 0 2.944 1.385 2.944 3.088.001.55-.14 1.092-.41 1.572l1.247.705a4.643 4.643 0 00-.17-4.827 7.481 7.481 0 00-2.089-9.769l-.208-.152a18.59 18.59 0 00-1.489-.977c-.132-1.474-1.135-2.823-2.857-3.827C26.225.556 23.94 0 21.52 0s-4.706.556-6.437 1.566c-1.722 1.004-2.725 2.353-2.857 3.827-.509.3-1.005.626-1.489.977l-.208.152a7.423 7.423 0 00-2.153 2.441l1.255.69a6 6 0 011.74-1.973l.209-.151a16.9 16.9 0 0119.88 0l.208.151a6.05 6.05 0 011.895 7.508 4.276 4.276 0 00-1.995-.828c-.578-1.79-1.522-3.233-2.811-4.29-1.47-1.208-3.402-1.925-5.743-2.13l-.125 1.426c3.702.326 6.061 1.982 7.186 5.054a4.267 4.267 0 00-.994.353 2.867 2.867 0 00-3.794 3.659 4.622 4.622 0 00-1.394 5.977 4.572 4.572 0 00-.941 2.802c0 1.563.717 2.917 1.833 3.726-1.153.834-2.288 1.285-3.265 1.285-.977 0-2.112-.45-3.265-1.286 1.115-.808 1.832-2.162 1.832-3.726a4.572 4.572 0 00-.941-2.8 4.621 4.621 0 00-1.394-5.978 2.866 2.866 0 00-3.794-3.66 4.268 4.268 0 00-.992-.351c.558-1.515 1.43-2.7 2.6-3.532 1.476-1.049 3.479-1.58 5.954-1.58V7.877c-2.779 0-5.06.62-6.783 1.845-1.524 1.083-2.621 2.642-3.266 4.639-.725.1-1.412.385-1.995.827a6.053 6.053 0 01-.37-4.254l-1.378-.387a7.485 7.485 0 00.711 5.744 4.642 4.642 0 00-.169 4.827l1.247-.705a3.195 3.195 0 01-.41-1.572c0-1.703 1.32-3.088 2.944-3.088.535 0 1.058.152 1.51.438a.715.715 0 00.76.002 1.432 1.432 0 011.896 2.08.715.715 0 00.276 1.086c1.081.49 1.78 1.602 1.78 2.836a3.158 3.158 0 01-.596 1.864.716.716 0 00.072.924 3.134 3.134 0 01.906 2.227c0 1.732-1.258 3.089-2.864 3.089v1.432c.337 0 .672-.04 1-.118l.103.084-.96 3.49-6.012 1.202.281 1.405 6.445-1.29a.716.716 0 00.55-.512l.938-3.413c1.163.708 2.31 1.075 3.384 1.075 1.073 0 2.22-.367 3.383-1.075l.938 3.413zM21.52 2.864A18.228 18.228 0 0014 4.472c1.012-1.739 4.046-3.04 7.518-3.04 3.472 0 6.506 1.301 7.518 3.04a18.228 18.228 0 00-7.518-1.608zm4.295 35.154v-.068h-1.432v.068a2.32 2.32 0 001.944 2.295l7.247 1.208.235-1.413-7.246-1.207a.892.892 0 01-.748-.883zm-8.593 0a.892.892 0 01-.748.883l-7.246 1.207.236 1.413 7.246-1.208a2.32 2.32 0 001.944-2.295v-.068h-1.432v.068z"/></g></svg>