<svg width="43" height="43" fill="none" xmlns="http://www.w3.org/2000/svg"><mask id="mask0" maskUnits="userSpaceOnUse" x="0" y="0" width="43" height="43"><path fill="#C4C4C4" d="M0 0h43v43H0z"/></mask><g mask="url(#mask0)"><path d="M38.224 4.98h-.91V3.559A3.562 3.562 0 0033.756 0H9.563a3.562 3.562 0 00-3.558 3.558V4.98h-.91a4.778 4.778 0 00-3.47 8.067l4.38 4.627v3.672H.313v1.423h19.524a.71.71 0 01.69.539l.712 2.846a.712.712 0 01-.69.884h-4.582a.712.712 0 00-.14 1.41l1.352.27a1.28 1.28 0 011.023 1.166h-3.364l-3.349-3.349a.711.711 0 00-.503-.208H.313v1.423h5.692v5.692H0v1.423h8.539c.188 0 .37-.075.503-.208l3.35-3.35h3.363a1.28 1.28 0 01-1.024 1.167l-1.35.27a.712.712 0 00.139 1.41h4.58a.712.712 0 01.691.884l-.711 2.846a.71.71 0 01-.69.54H0v1.422h6.005v2.135c0 .393.319.711.712.711h29.885a.712.712 0 00.712-.711V17.674l4.379-4.624a4.783 4.783 0 00-3.47-8.07h.001zM12.097 29.886a.711.711 0 00-.504.209l-3.349 3.35h-.816V27.75h3.263l2.135 2.134h-.73zM35.89 3.558V4.98h-8.557l-.313-1.044c-.297-.952-.921-1.829-1.73-2.514h8.465a2.137 2.137 0 012.135 2.135zm-7.828 7.827v-.712h6.668l-4.804 4.27h-5.421V13.52h1.423a2.137 2.137 0 002.134-2.135zm-1.03-2.771a.712.712 0 00-.393.636v2.135a.713.713 0 01-.711.712h-2.135a.712.712 0 00-.712.711v2.135h-4.98V12.07a5.478 5.478 0 004.151-2.428.712.712 0 00-.09-.895l-.69-.69a.975.975 0 01-.234-.989c.13-.396.5-.664.918-.664h.925a.712.712 0 00.712-.712V2.078c.89.542 1.583 1.37 1.866 2.275l.468 1.57a.717.717 0 00.107.235l1.483 2.114-.684.342zM13.39 14.943l-4.803-4.27h7.65l.44.88v3.39H13.39zm8.197-13.52c.264.004.526.036.783.095v3.463h-.213a2.392 2.392 0 00-1.692 4.082l.25.25a4.081 4.081 0 01-2.891 1.351l-1.412-2.823a4.813 4.813 0 01-.233-.565 3.894 3.894 0 001.566-4.984 4.407 4.407 0 012.626-.869h1.216zm-7.4 0a2.49 2.49 0 110 4.981 2.49 2.49 0 010-4.98zm-6.76 2.135a2.137 2.137 0 012.135-2.135h1.608a3.884 3.884 0 00-.745 3.558H7.428V3.558zm0 15.62l2.054 2.169H7.428v-2.17zM18.1 32.732h-1.38a2.684 2.684 0 00.445-1.423h1.648a.712.712 0 00.675-.487 2.7 2.7 0 00-.321-2.36h1.381a2.135 2.135 0 002.071-2.652l-.711-2.846a2.132 2.132 0 00-2.071-1.617h-3.87c0-.786.637-1.423 1.423-1.423h5.607a2.93 2.93 0 012.712 1.8c.144.36.218.744.22 1.131v1.964a2.913 2.913 0 01-.86 2.073 4.288 4.288 0 00-1.275 3.079v4.098a2.935 2.935 0 01-2.932 2.932h-.626a.683.683 0 01-.428-.162l.364-1.455a2.135 2.135 0 00-2.071-2.652zM7.428 39.847h5.068l-.569 1.423H7.428v-1.423zm28.463 1.423h-4.5l-2.596-6.492.666-4.672a4.973 4.973 0 002.872-4.49 4.91 4.91 0 00-.502-2.153l4.06-4.287V41.27zm-5.134-16.673a3.508 3.508 0 01-1.03 3.65l.432-3.018.598-.632zm9.904-12.527L28.97 24.415a.712.712 0 00-.188.388l-.676 4.717a.514.514 0 00-.004.036l-.743 5.21a.71.71 0 00.044.364l2.456 6.14H13.46l.57-1.423h3.36a2.13 2.13 0 002.056-1.577c.252.102.52.154.79.154h.626a4.36 4.36 0 004.355-4.355v-4.098a2.917 2.917 0 01.86-2.073 4.326 4.326 0 001.275-3.079v-1.964a4.531 4.531 0 00-.325-1.668 4.352 4.352 0 00-4.03-2.687H17.39a2.85 2.85 0 00-2.846 2.847h-3.102l-8.785-9.279a3.326 3.326 0 01-.921-2.305 3.363 3.363 0 013.359-3.359h6.077a3.866 3.866 0 003.671 1.364c.085.24.183.476.295.705l.39.777H6.716a.712.712 0 00-.473 1.244l6.404 5.692a.71.71 0 00.473.18h17.077a.712.712 0 00.473-.18l6.404-5.692a.712.712 0 00-.473-1.244h-7.659l.15-.075a.712.712 0 00.265-1.045l-1.211-1.726h10.077a3.355 3.355 0 012.437 5.666z" fill="#fff"/></g></svg>