<svg width="43" height="43" fill="none" xmlns="http://www.w3.org/2000/svg"><mask id="mask0" maskUnits="userSpaceOnUse" x="0" y="0" width="43" height="43"><path fill="#C4C4C4" d="M0 0h43v43H0z"/></mask><g mask="url(#mask0)" fill="#fff"><path fill-rule="evenodd" clip-rule="evenodd" d="M20.662 0c-8.649 0-15.69 6.74-15.69 15.033v5.345c0 5.926 4.889 10.78 11.024 11.122v.405L4.122 35.212H4.12C2.256 35.756 1 37.377 1 39.247v.923s.266.877 1 .877.654-.877.654-.877v-.923c0-1.162.78-2.172 1.938-2.509L17.65 33.1v-3.194a9.142 9.142 0 003.457.673c1.196 0 2.37-.23 3.458-.673v12.117s0 .977.827.977.827-.977.827-.977V20.197l-.015-.074c-.977-4.924-5.487-8.493-10.72-8.493h-3.237v10.458c0 2.86 1.483 5.393 3.749 6.932v.887c-5.231-.34-9.37-4.487-9.37-9.53v-5.344c0-7.41 6.293-13.442 14.035-13.442s14.035 6.033 14.035 13.442V41.36h-.044v.664s0 .977.85.977c.848 0 .848-.977.848-.977v-26.99C36.351 6.741 29.311 0 20.661 0zm-6.76 17.174V13.22h1.583c4.18 0 7.812 2.682 8.917 6.471.063.216.118.436.164.658v7.794a7.437 7.437 0 01-3.458.846c-3.977 0-7.207-3.099-7.207-6.901v-4.914z"/><path d="M33.033 21.848H31.38v20.174s0 .977.827.977c.827.001.827-.977.827-.977V21.848zm-3.317 6.842h-1.654v13.333s0 .977.827.977.827-.977.827-.977V28.69zm8.806 6.67l-.144-.058-.642 1.466.147.06c1.022.41 1.68 1.36 1.68 2.418v.923s0 .986.826.977c.828-.009.828-.977.828-.977v-.923c0-1.703-1.06-3.228-2.695-3.886zM2.373 4.227l1.679.919.919 1.68a.716.716 0 001.256 0l.919-1.68 1.68-.919a.716.716 0 000-1.256l-1.68-.919-.919-1.68a.716.716 0 00-1.256 0l-.919 1.68-1.68.919a.716.716 0 000 1.256zm2.55-1.02a.717.717 0 00.285-.284l.39-.715.392.715c.066.12.164.22.284.285l.715.39-.714.392a.716.716 0 00-.285.284l-.391.715-.391-.715a.716.716 0 00-.285-.284l-.715-.391.715-.391zm20.449 8.02l1.68.919.919 1.68a.715.715 0 001.256 0l.919-1.68 1.68-.919a.717.717 0 000-1.256l-1.68-.919-.919-1.68a.716.716 0 00-1.256 0l-.919 1.68-1.68.919a.716.716 0 000 1.256zm2.551-1.02a.716.716 0 00.285-.284l.39-.715.392.715a.71.71 0 00.285.285l.714.39-.715.392a.716.716 0 00-.284.284l-.391.715-.391-.715a.716.716 0 00-.285-.284l-.715-.391.715-.391z"/></g></svg>