<svg width="43" height="43" fill="none" xmlns="http://www.w3.org/2000/svg"><mask id="mask0" maskUnits="userSpaceOnUse" x="0" y="0" width="43" height="43"><path fill="#C4C4C4" d="M0 0h43v43H0z"/></mask><g mask="url(#mask0)" fill="#fff"><path d="M42.32 20.068c0-1.475-1.2-2.675-2.675-2.675H25.372a.84.84 0 100 1.68h14.273a.996.996 0 010 1.99H3.675a.996.996 0 010-1.99h14.307a.84.84 0 000-1.68H3.675A2.678 2.678 0 001 20.068c0 1.307.943 2.397 2.184 2.628v16.885A3.423 3.423 0 006.603 43h30.198a3.423 3.423 0 003.42-3.42v-16.9a2.679 2.679 0 002.1-2.612zm-10.85 2.674v6.222h-5.392v-6.222h5.392zM4.863 33.614v-2.97h33.678v2.97H4.863zm19.535-10.872v6.222h-5.392v-6.222h5.392zm-7.072 0v6.222h-5.391v-6.222h5.391zm-7.071 0v6.222H4.863v-6.222h5.392zm28.286 6.222h-5.392v-6.222h5.392v6.222zM4.863 39.581v-4.287h5.392v6.026H6.603c-.96 0-1.74-.78-1.74-1.74zm7.072-4.287h5.391v6.026h-5.391v-6.026zm7.071 0h5.392v6.026h-5.392v-6.026zm7.072 0h5.392v6.026h-5.392v-6.026zM38.54 39.58c0 .959-.78 1.74-1.74 1.74h-3.65v-6.027h5.392v4.287zM12.676 9.863c.365 1.154.043 2.286-.956 3.362a.84.84 0 00.044 1.187.848.848 0 001.187-.044c1.823-1.964 1.714-3.85 1.301-5.088a5.848 5.848 0 00-1.335-2.178.842.842 0 00-1.189.023.838.838 0 00.023 1.186c.006.006.633.628.925 1.552zm8.346 1.993c.33.317.87.306 1.187-.023a.84.84 0 00-.023-1.188 4.154 4.154 0 01-.906-1.498c-.391-1.172-.075-2.321.94-3.413a.84.84 0 00-1.232-1.143c-1.823 1.963-1.714 3.85-1.302 5.088a5.852 5.852 0 001.336 2.177zm10.684 3.56a.84.84 0 00.615-1.411c-1.158-1.247-1.528-2.561-1.1-3.906a4.824 4.824 0 011.1-1.82c2.02-2.176 1.901-4.264 1.445-5.632A6.478 6.478 0 0032.287.234a.84.84 0 10-1.163 1.211c.113.11 2.735 2.694-.022 5.679a6.516 6.516 0 00-1.457 2.391c-.456 1.368-.576 3.456 1.445 5.633.166.178.39.268.616.268z"/><path d="M22.296 17.64a.849.849 0 00-1.188 0 .848.848 0 000 1.187.849.849 0 001.188 0 .849.849 0 000-1.188z"/></g></svg>