<svg width="43" height="43" fill="none" xmlns="http://www.w3.org/2000/svg"><mask id="mask0" maskUnits="userSpaceOnUse" x="0" y="0" width="43" height="43"><path fill="#C4C4C4" d="M0 0h43v43H0z"/></mask><g mask="url(#mask0)" fill="#fff"><path d="M21.518 24.682a.84.84 0 00-1.119.397l-.139.293a.84.84 0 001.516.722l.14-.293a.84.84 0 00-.398-1.119zm-9.409-4.866a.84.84 0 00-1.188 0 1.787 1.787 0 01-2.525 0 .84.84 0 10-1.187 1.188 3.454 3.454 0 002.45 1.013c.887 0 1.774-.338 2.45-1.013a.84.84 0 000-1.188z"/><path d="M40.41 2.23c-2.957-2.957-7.764-2.966-10.734-.027a20.205 20.205 0 00-2.949-1.18c-3.404-1.066-6.19-1.027-6.43-1.022-4.555.004-8.528 1.915-10.371 4.99a7.747 7.747 0 00-.609 1.259c-.868.826-4.785 4.874-4.785 10.614 0 3.823-1.839 5.82-2.935 6.67a1.54 1.54 0 00-.593 1.333c.038.517.331.978.783 1.232.413.232.878.455 1.327.67.397.191.961.462 1.237.638v1.495c0 .205-.04.405-.116.595l-.209.512a2.166 2.166 0 00.273 2.11v.184c0 .544.24 1.049.64 1.39v.987a3.836 3.836 0 003.83 3.831h2.48a.84.84 0 000-1.68h-2.48a2.155 2.155 0 01-2.152-2.151v-1.45a.84.84 0 00-.51-.772l-.036-.016a.153.153 0 01-.093-.14v-.474a.84.84 0 00-.18-.52l-.148-.188a.484.484 0 01-.068-.48l.208-.512c.16-.392.24-.804.24-1.227v-1.787c0-.809-.824-1.204-2.19-1.86a27.815 27.815 0 01-1.053-.523c1.35-1.102 3.425-3.506 3.425-7.868 0-3.156 1.405-5.786 2.624-7.474.066 1.462.509 2.992 1.328 4.524 2.154 4.03 5.907 5.72 8.922 7.077 2.869 1.291 4.492 2.104 4.505 3.794.01 1.24-.276 2.154-.848 2.713-.66.646-1.538.63-1.543.63a.825.825 0 00-.718.327.838.838 0 00-.118.787c.025.07.62 1.757 1.981 3.4 1.702 2.054 3.85 3.138 6.246 3.162l2.256 6.615a.84.84 0 101.589-.542l-2.222-6.514c4.189-2.245 7.133-5.727 8.537-10.112 1.12-3.495 1.173-7.418.227-11.133.518-.314.999-.69 1.432-1.124 2.968-2.967 2.968-7.796 0-10.763zm-3.258 22.51c-1.317 4.115-4.146 7.355-8.186 9.38-2.042.092-3.824-.752-5.297-2.511a10.711 10.711 0 01-1.305-1.991 3.85 3.85 0 001.525-.892c.93-.89 1.395-2.22 1.381-3.954-.021-2.848-2.68-4.045-5.495-5.312-2.927-1.318-6.246-2.812-8.13-6.337-1.171-2.19-1.447-4.273-.823-6.1a6.128 6.128 0 01.545-1.17c1.542-2.573 4.968-4.172 8.94-4.172h.024c.027-.002 2.673-.065 5.894.944 4.287 1.343 7.445 3.845 9.387 7.438 2.453 4.54 3.029 10.027 1.54 14.676zm1.325-12.3a21.054 21.054 0 00-1.388-3.176c-1.378-2.55-3.37-4.644-5.867-6.2a5.939 5.939 0 018.001.354 5.938 5.938 0 01-.746 9.022z"/><path d="M22.538 39.33l-2.63-4.555-.09-3.112a5.097 5.097 0 00-4.687-4.94 4.658 4.658 0 00-4.565 2.635l-.041.088a5.122 5.122 0 001.825 6.46l2.619 1.707 2.86 4.955a.839.839 0 101.454-.84l-2.541-4.402 1.012-.584 1.013-.585 2.317 4.013a.84.84 0 001.454-.84zm-6.916-3.295l-2.355-1.536a3.437 3.437 0 01-1.225-4.334l.042-.088a2.973 2.973 0 012.911-1.68 3.42 3.42 0 013.145 3.315l.08 2.822-2.598 1.5zm8.174 5.532a.846.846 0 00-.593-.246.845.845 0 00-.594.246.845.845 0 00-.246.593c0 .221.09.438.246.594a.845.845 0 00.594.246c.22 0 .437-.09.593-.246a.846.846 0 00.246-.594c0-.22-.09-.437-.246-.593zm-6.88-36.645a.84.84 0 00-1.102-.442c-1.48.633-2.549 1.7-3.007 3.004-.46 1.308-.287 2.775.499 4.245a.839.839 0 101.48-.792c-.566-1.058-.698-2.033-.395-2.896.3-.855 1.04-1.572 2.083-2.018a.84.84 0 00.442-1.101zm2.048-1.058h-.047a.84.84 0 00.005 1.679h.042a.84.84 0 000-1.68z"/></g></svg>