<svg width="60" height="60" fill="none" xmlns="http://www.w3.org/2000/svg"><circle cx="30" cy="30" r="30" fill="#73732E"/><path d="M48.403 30.793c-.556-1.854-.656-3.726-.656-5.645 0-.722-1.153-.755-1.153 0 0 1.534.035 3.046.347 4.557.47 2.275 1.152 4.397 1.24 6.746l-2.508-3.167c-.678-.856-1.665-1.137-2.715-1.116a4.92 4.92 0 001.69-3.549c.35-.128.817-.371 1.15-.82.428-.58-.48-1.292-.928-.686-.4.541-1.155.58-1.74.386a2.06 2.06 0 01-1.398-1.938v-1.786c0-1.93-1.78-2.184-3.267-2.184a3.327 3.327 0 00-3.297 2.919c-.928-.025-1.806.426-1.97 1.424 0-3.92 2.44-7.484 6.698-7.484a6.66 6.66 0 016.242 4.264c.262.672 1.348.284 1.074-.419-1.164-2.982-4.115-4.998-7.316-4.998-4.329 0-7.85 3.522-7.85 7.85v1.17c0 2.146-.631 4.059-1.083 6.128-.492-.932-1.266-1.747-1.918-2.568-.448-.565-1.372.125-.903.716 1.052 1.326 2.302 2.583 2.302 4.395l-.001 3.458H27.55v-2.221c0-.721-1.153-.754-1.153 0v11.622h-6.56c-.722 0-.755 1.153 0 1.153h28.935a.576.576 0 00.576-.576v-11.17c0-2.19-.318-4.364-.946-6.461zm-5.04 2.528a1.78 1.78 0 011.406.68l3.04 3.837c.489.617.387 1.434.387 2.17H45.23a.576.576 0 00-.577.576v7.263H35.14v-7.263a.576.576 0 00-.576-.577h-2.968c0-.735-.102-1.551.387-2.17L35.023 34c.342-.432.855-.68 1.406-.68h6.934zm-7.068-8.407c0-1.197.974-2.17 2.17-2.17h1.082c1.371 0 1.032 1.942 1.032 2.817 0 1.633 1.298 3.04 2.91 3.183a3.739 3.739 0 01-1.092 2.375 3.535 3.535 0 01-2.499 1.049h-.026a3.59 3.59 0 01-.721-.078c-.005 0-.01-.002-.014-.003l-.016-.003-.014-.003a3.622 3.622 0 01-2.812-3.515v-3.652zm-1.424.749h.271v1.816a1.398 1.398 0 01-.814-1.273c0-.3.243-.543.543-.543zm-2.377 5.46c.446-1.49.682-3.033.702-4.588a2.549 2.549 0 001.95 2.156 4.796 4.796 0 001.649 3.477c-1.037-.02-2.01.277-2.676 1.116l-2.508 3.168c.067-1.806.363-3.595.883-5.328zM27.55 39.6h2.892v8.248H27.55V39.6zm4.045 8.248V41.16h2.392v6.687h-2.392zm16.6 0h-2.391V41.16h2.391v6.687zm-31.01-.001h-1.988V36.225c0-.722-1.153-.754-1.153 0v2.22h-2.891v-3.457c0-.964.33-1.91.929-2.666l2.428-3.062a4.266 4.266 0 013.36-1.623h5.855c.997 0 1.97.35 2.737.987.555.46 1.316-.407.736-.888a5.454 5.454 0 00-3.073-1.236 5.446 5.446 0 002.125-4.257 2.607 2.607 0 002.025-2.543c0-.605-.313-1.139-.786-1.447a4.35 4.35 0 00-.269-2.387c.427-2.5-1.555-4.866-4.097-4.866h-4.65c-2.544 0-4.528 2.36-4.097 4.865a4.34 4.34 0 00-.27 2.388c-.472.31-.785.844-.785 1.454 0 1.236.867 2.273 2.025 2.535a5.487 5.487 0 002.121 4.257 5.408 5.408 0 00-3.86 2.045l-2.428 3.062A5.463 5.463 0 0010 34.988v13.435c0 .319.258.577.576.577h6.61c.72 0 .753-1.153 0-1.153zm9.067-26.812v-1.91c.388-.058.87.12.87.583a1.45 1.45 0 01-.87 1.327zm-9.905-8.002a2.986 2.986 0 012.126-.88h4.65c3.856 0 3.89 6.01 0 6.01h-4.65c-2.614 0-3.98-3.275-2.126-5.13zm-1.003 8.002a1.454 1.454 0 01-.87-1.335.58.58 0 01.247-.47c.187-.132.406-.105.623-.105v1.91zm1.153 1.148v-3.368c.588.319 1.261.5 1.976.5h4.65c.701 0 1.376-.173 1.976-.497v2.913c.036 2.498-1.643 4.753-4.301 4.753-2.331 0-4.3-1.969-4.3-4.3zM11.153 39.6h2.891v8.248h-2.891V39.6z" fill="#fff"/><path d="M20.798 37.997c.324 0 .648-.124.895-.37l2.042-2.043c.829-.829.939-2.189.23-3.128a2.389 2.389 0 00-3.167-.575 2.39 2.39 0 00-3.168.574c-.708.94-.597 2.301.23 3.13l2.043 2.042c.247.246.57.37.895.37zm-2.144-4.968a1.24 1.24 0 011.584-.136.957.957 0 001.12 0c1.2-.863 2.599.839 1.562 1.876l-2.043 2.042a.113.113 0 01-.159 0l-2.042-2.042a1.238 1.238 0 01-.022-1.74zm18.779 4.232a2.037 2.037 0 00.023 2.862l1.64 1.641a1.14 1.14 0 001.599 0l1.64-1.64c1.627-1.628-.432-4.373-2.439-3.19a2.01 2.01 0 00-2.463.327zm2.979.712c.849-.611 1.847.597 1.108 1.335l-1.624 1.625-1.625-1.625c-.74-.74.264-1.943 1.11-1.334a.882.882 0 001.03 0zM20.798 25.07c.496 0 .974-.18 1.346-.509.558-.491-.205-1.356-.762-.864a.882.882 0 01-1.35-.221c-.372-.643-1.37-.066-.997.577a2.043 2.043 0 001.763 1.017zm0-2.762a.576.576 0 00.576-.577v-.844a.576.576 0 10-1.153 0v.844c0 .319.258.577.577.577zm17.847 8.204a1.972 1.972 0 003.07-.76c.29-.684-.772-1.133-1.062-.448a.821.821 0 01-1.277.317c-.575-.472-1.306.42-.73.891zm1.25-1.889a.576.576 0 00.577-.576v-.43a.576.576 0 00-.575-.576h-.001a.576.576 0 00-.576.575v.43a.575.575 0 00.575.577z" fill="#fff"/></svg>