<svg width="60" height="60" fill="none" xmlns="http://www.w3.org/2000/svg"><circle cx="30" cy="30" r="30" fill="#73732E"/><path d="M29.96 12a.588.588 0 00-.588.588v1.535a.588.588 0 101.176 0v-1.535A.588.588 0 0029.96 12zM37 24.5a.5.5 0 11-1 0 .5.5 0 011 0zm4.5.5a.5.5 0 100-1 .5.5 0 000 1zm-2.5.5a.5.5 0 11-1 0 .5.5 0 011 0z" fill="#fff"/><path fill-rule="evenodd" clip-rule="evenodd" d="M46.9 36.38a.589.589 0 00-.719-.42l-3.118.823-2.163-7.945a4.497 4.497 0 002.254-1.963c.91-1.577 1.027-3.748.338-6.278a17.091 17.091 0 00-1.924-4.416.588.588 0 00-.651-.26l-7.723 2.037a.587.587 0 00-.438.555 17.062 17.062 0 00.577 4.773c1.005 3.693 3.171 5.898 5.795 5.898a4.441 4.441 0 00.635-.044l2.162 7.943-3.11.82a.589.589 0 00.225 1.152l.038-.006.037-.008 7.366-1.943a.589.589 0 00.42-.719zm-12.97-17.4l6.86-1.809a15.861 15.861 0 011.568 3.735c.1.369.182.728.245 1.077a7.91 7.91 0 00-1.094-.027 13.994 13.994 0 00-.118-.677l-.042-.205a18.734 18.734 0 00-.076-.345.588.588 0 00-.751-.43l-.027.008a.584.584 0 00-.36.39.586.586 0 00-.009.293c.09.392.16.754.207 1.064l-.272.032-.509.063-.027.004c-1.527.195-3.246.414-5.242.058a15.932 15.932 0 01-.353-3.23zm5.2 9.028c-1.955 0-3.623-1.693-4.521-4.556.656.09 1.28.127 1.875.127 1.16 0 2.212-.134 3.19-.259 1.154-.147 2.17-.276 3.074-.134.068 1.225-.136 2.276-.612 3.1a3.365 3.365 0 01-2.1 1.601 3.673 3.673 0 01-.907.12z" fill="#fff"/><path d="M18.5 25a.5.5 0 100-1 .5.5 0 000 1zm5.5-.5a.5.5 0 11-1 0 .5.5 0 011 0zM20.5 26a.5.5 0 10-.218-.95l-.02.01-.02.012a.515.515 0 00-.207.243.499.499 0 00.465.685z" fill="#fff"/><path fill-rule="evenodd" clip-rule="evenodd" d="M27.164 18.514a.588.588 0 00-.438-.556l-7.723-2.037a.589.589 0 00-.651.26 17.094 17.094 0 00-1.925 4.416c-.688 2.53-.572 4.702.339 6.278a4.5 4.5 0 002.254 1.963l-2.163 7.945-3.118-.823a.589.589 0 00-.3 1.138l7.366 1.943a.603.603 0 00.15.02.588.588 0 00.15-1.158l-3.11-.82 2.162-7.943a4.686 4.686 0 00.635.045c2.623 0 4.79-2.205 5.795-5.9a16.98 16.98 0 00.577-4.771zm-1.712 4.463c-.858 3.15-2.6 5.03-4.66 5.03a3.474 3.474 0 01-.908-.12 3.365 3.365 0 01-2.1-1.6c-.553-.959-.74-2.223-.556-3.713.785.128 1.527.177 2.23.177.44 0 .865-.018 1.277-.048.4-.03.787-.07 1.163-.113l.385-.045.366-.045c1.105-.137 2.086-.258 2.958-.149l-.03.126-.035.15c-.029.117-.059.234-.09.35zm.37-1.784c-1.043-.142-2.153-.005-3.318.139-1.489.184-3.158.39-5.07.085a14.823 14.823 0 01.129-.511 15.864 15.864 0 011.568-3.734l.934.246c-.17.327-.326.662-.447.935a.585.585 0 00.298.777.588.588 0 00.777-.298c.19-.427.376-.805.542-1.105l4.756 1.254a16.014 16.014 0 01-.17 2.212z" fill="#fff"/><path d="M27.5 34a.5.5 0 100-1.001.5.5 0 000 1.001zm5.5.5a.5.5 0 11-1 0 .5.5 0 011 0zM29.5 36a.5.5 0 100-1 .5.5 0 000 1z" fill="#fff"/><path fill-rule="evenodd" clip-rule="evenodd" d="M33.57 46.816a.588.588 0 01-.021 1.176l-7.617-.135a.58.58 0 01-.466-.242.586.586 0 01-.112-.356.588.588 0 01.599-.578l3.215.057.08-8.232a4.64 4.64 0 01-.622-.13c-2.524-.714-4.009-3.425-3.971-7.252a14.863 14.863 0 01.012-.475c.057-1.426.307-2.893.731-4.275a.589.589 0 01.573-.415l7.986.141a.588.588 0 01.555.428c.44 1.55.666 3.2.65 4.772-.025 2.623-.729 4.68-2.034 5.95a4.496 4.496 0 01-2.703 1.275l-.08 8.234 3.225.057zm-.077-19.547l-7.094-.126a15.987 15.987 0 00-.539 3.204c1.824.886 3.538 1.143 5.06 1.371l.023.003c.263.04.525.08.782.122.038-.312.07-.679.09-1.08a.588.588 0 111.175.06 16.56 16.56 0 01-.107 1.246c.219.053.433.112.643.18.136.043.27.09.402.143.035-.353.054-.72.058-1.103.013-1.32-.157-2.7-.493-4.02zm-7.657 4.362c.086 2.999 1.23 5.081 3.11 5.613a3.451 3.451 0 00.537.107l.104.01.074.006a3.364 3.364 0 002.647-.961c.682-.664 1.165-1.62 1.433-2.817-.831-.383-1.845-.535-2.994-.707-.976-.146-2.025-.303-3.141-.62a13.742 13.742 0 01-1.77-.631z" fill="#fff"/><path d="M26.326 13.556l.78 1.329a.58.58 0 01.066.424.588.588 0 01-.997.283l-.023-.026a.523.523 0 01-.023-.028l-.015-.02-.014-.023-.01-.015-.779-1.329a.588.588 0 111.015-.595zm8.073-.21a.588.588 0 00-.805.21l-.78 1.329a.589.589 0 00.386.873l.02.005.023.003.032.003.028.002h.018a.503.503 0 00.087-.006l.027-.005.03-.007a.586.586 0 00.364-.273l.78-1.329a.588.588 0 00-.21-.805z" fill="#fff"/></svg>