<svg width="60" height="60" fill="none" xmlns="http://www.w3.org/2000/svg"><circle cx="30" cy="30" r="30" fill="#73732E"/><path d="M33.436 38.963h-.006a.554.554 0 00-.553.556.56.56 0 001.116 0 .557.557 0 00-.557-.556z" fill="#fff"/><path d="M39.581 34.665l-5.445-2.333a1.226 1.226 0 01-.741-1.052c4.174-1.099 6.858-3.745 6.973-3.861a.558.558 0 00.053-.727c-.017-.022-1.674-2.29-1.674-5.616v-1.19c0-4.9-3.987-8.886-8.886-8.886-4.9 0-8.886 3.986-8.886 8.886v1.19c0 3.326-1.658 5.594-1.674 5.615a.557.557 0 00.052.728c.116.116 2.8 2.762 6.973 3.861-.029.46-.313.868-.741 1.052l-5.445 2.333A3.527 3.527 0 0018 37.911v8.153A2.94 2.94 0 0020.936 49h5.355a2.344 2.344 0 002.341-2.342v-.038h2.458l-.001.038A2.344 2.344 0 0033.43 49h5.355a2.94 2.94 0 002.936-2.936V37.91c0-1.415-.84-2.689-2.14-3.246zm-4.42-.683l1.877.805v3.48a4.7 4.7 0 00-3.013-1.09h-.263a5.317 5.317 0 001.398-3.195zm.648 4.783a2.435 2.435 0 01-2.379 1.983 2.42 2.42 0 01-2.418-2.419l.001-.038h3.012c.649 0 1.258.173 1.784.474zm3.439-11.83c-.79.683-2.928 2.35-5.856 3.19v-1.208a6.506 6.506 0 002.975-5.461v-3.008c.407-.005.83-.024 1.266-.062v.69c0 2.867 1.085 4.992 1.615 5.858zm-9.387-14.822c4.078 0 7.433 3.158 7.748 7.157-3.442.31-5.848-.548-7.281-1.345-1.625-.904-2.39-1.927-2.397-1.936a.556.556 0 00-.948.078c-.668 1.337-1.777 2.29-3.297 2.836a7.634 7.634 0 01-1.575.378c.31-4.004 3.667-7.168 7.75-7.168zm-9.387 14.821c.529-.866 1.614-2.99 1.614-5.858v-.669c1.166-.123 3.871-.674 5.492-3.147a10.087 10.087 0 002.147 1.605c1.21.682 3.045 1.407 5.527 1.556v3.035a5.399 5.399 0 01-5.393 5.393 5.399 5.399 0 01-5.393-5.393V21.67a.557.557 0 10-1.113 0v1.785a6.506 6.506 0 002.974 5.461v1.209c-2.928-.84-5.066-2.508-5.855-3.192zm5.186 6.577l.363-.156a2.339 2.339 0 001.42-2.152v-1.707c.748.3 1.564.466 2.418.466.854 0 1.67-.166 2.418-.466v1.707c0 .938.557 1.783 1.419 2.152l.365.156v.059c0 1.48-.78 2.85-2.049 3.608h-4.307a4.207 4.207 0 01-2.049-3.608l.002-.059zm-2.977 1.276l1.878-.805a5.318 5.318 0 001.398 3.196h-.263a4.7 4.7 0 00-3.013 1.09v-3.481zm3.608 13.1h-5.355a1.825 1.825 0 01-1.823-1.823V37.91c0-.969.576-1.841 1.466-2.223l.99-.424v4.344a4.711 4.711 0 00.62 5.453c.213.235.523.37.851.37h3.251c.328 0 .636.127.868.359a1.23 1.23 0 01-.868 2.097zm1.814-6.507c.848 1.592 2.023 2.873 3.498 3.817a2.348 2.348 0 00-.21.31H28.33a2.356 2.356 0 00-.383-.504 2.326 2.326 0 00-1.656-.686l-3.25.001c-.016 0-.025-.004-.024-.002a3.6 3.6 0 01-.929-2.417 3.612 3.612 0 013.608-3.608h1.308c.05.257.126.6.245 1a.557.557 0 101.067-.316 9.382 9.382 0 01-.175-.684H29.9v.038a3.535 3.535 0 003.53 3.532 3.527 3.527 0 003.319-2.324 3.6 3.6 0 01-.04 4.775.056.056 0 01-.027.005h-3.251a2.33 2.33 0 00-.86.164c-1.486-.857-2.658-2.075-3.484-3.624a.557.557 0 00-.982.523zm12.503 4.684a1.825 1.825 0 01-1.823 1.823h-5.354a1.23 1.23 0 01-1.229-1.228 1.23 1.23 0 011.229-1.229h3.251c.328 0 .638-.134.85-.37a4.712 4.712 0 00.62-5.452v-4.344l.99.424a2.415 2.415 0 011.466 2.223v8.153z" fill="#fff"/><path d="M28.4 21.517a.557.557 0 00-.776.128c-.063.087-.215.188-.44.188-.226 0-.379-.101-.44-.188a.557.557 0 10-.905.65c.293.407.796.651 1.344.651.55 0 1.052-.244 1.345-.652a.557.557 0 00-.127-.777zm3.641 3.332a.557.557 0 00-.787-.004c-.203.2-.69.436-1.393.436-.704 0-1.19-.235-1.394-.436a.557.557 0 00-.783.791c.48.475 1.293.758 2.177.758.883 0 1.697-.283 2.176-.758a.557.557 0 00.004-.787zm1.714-3.332a.557.557 0 00-.777.128c-.062.087-.215.188-.44.188s-.378-.101-.44-.188a.557.557 0 00-.904.65c.293.407.795.651 1.344.651s1.052-.244 1.345-.652a.557.557 0 00-.128-.777z" fill="#fff"/></svg>