<svg width="60" height="60" fill="none" xmlns="http://www.w3.org/2000/svg"><circle cx="30" cy="30" r="30" fill="#73732E"/><path d="M37.09 12.027a1.984 1.984 0 10.001 3.969 1.984 1.984 0 000-3.969zm0 2.646a.662.662 0 11.001-1.323.662.662 0 010 1.323zm-6.98-1.393a3.307 3.307 0 100 6.615 3.307 3.307 0 000-6.614zm0 5.293a1.985 1.985 0 110-3.97 1.985 1.985 0 010 3.97zm-9.26-3.97a2.646 2.646 0 100 5.292 2.646 2.646 0 000-5.292zm0 3.97a1.323 1.323 0 110-2.647 1.323 1.323 0 010 2.646zM15.854 11a1.984 1.984 0 100 3.969 1.984 1.984 0 000-3.969zm0 2.646a.662.662 0 110-1.323.662.662 0 010 1.323zM32.94 31.224l1.25-.426 4.28 12.574-1.253.426-4.278-12.574zm-3.385 1.147l1.252-.426 4.278 12.575-1.252.426-4.278-12.575zm6.768-2.301l1.252-.426 4.277 12.575-1.252.425-4.277-12.574z" fill="#fff"/><path d="M48.913 34.42l-3.125-9.19a3.726 3.726 0 00-4.727-2.328h-.002l-1.792.61-.116-.341a4.747 4.747 0 00-8.268-1.354 3.67 3.67 0 00-3.048 1.257 3.229 3.229 0 00-.436-.11 3.73 3.73 0 00-1.474.04 4.747 4.747 0 00-7.96 2.612l-.062.355-1.865-.326a3.726 3.726 0 00-4.313 3.028l-1.67 9.561a3.732 3.732 0 003.03 4.314l1.865.325-.06.34a1.683 1.683 0 00.095 3.297l14.09 2.464a1.684 1.684 0 001.815-.96c.294.067.602.05.887-.05l13.543-4.607a1.683 1.683 0 00-.415-3.272l-.111-.326 1.791-.61a3.732 3.732 0 002.328-4.73zM38.115 24.223l.232.683-4.552 1.548-.234-.682 4.554-1.549zm-11.008.505c.279-.095.573-.137.867-.123.242.011.47-.11.595-.318h.002a2.394 2.394 0 012.504-1.112.661.661 0 00.686-.299 3.384 3.384 0 011.79-1.418 3.428 3.428 0 014.07 1.534l-5.115 1.74a.662.662 0 00-.41.84l.986 2.902a.871.871 0 01-1.648.56l-.331-.966a.661.661 0 10-1.252.426.87.87 0 01-1.65.56l-.66-1.935a.662.662 0 00-.84-.413l-1.21.412a2.399 2.399 0 011.616-2.39zm-.37 4.13l-.683.232-.231-.682.681-.232.233.682zm-3.502-5.8l.002.001c.775.133 1.479.53 1.992 1.125.035.037.074.07.117.099a3.749 3.749 0 00-1.064 1.786l-4.828-.865a3.429 3.429 0 013.781-2.145zm-4.078 3.444l5.025.898c.026.25.078.496.155.735l-5.304-.926.124-.707zm-5.848 14.742a2.408 2.408 0 01-1.95-2.782l1.672-9.561a2.402 2.402 0 012.779-1.954h.004l1.864.326-.124.71-1.361-.238a2.194 2.194 0 00-2.54 1.783v.003l-1.497 8.555a2.196 2.196 0 001.786 2.54l1.362.237-.124.71-1.87-.329zm4.017-11.958L15.53 39.557l-1.363-.238a.87.87 0 01-.707-1.007l1.496-8.556a.874.874 0 011.008-.708l1.362.238zM29.72 47.378a.36.36 0 01-.418.293v.001l-14.09-2.465a.36.36 0 11.1-.714l.025.005a.662.662 0 00.765-.538l2.703-15.453 6.013 1.052 4.61 13.554-.54 3.082a.66.66 0 00.54.765.36.36 0 01.292.418zm15.398-5.73a.36.36 0 01-.224.456l-13.543 4.608a.36.36 0 11-.233-.683.661.661 0 00.413-.839L26.48 30.34l.789-.269a2.186 2.186 0 003.382.18 2.195 2.195 0 003.684-2.203l-.116-.34 4.552-1.55 5.052 14.85a.662.662 0 00.84.415.36.36 0 01.456.224zm-4.767-14.95l1.309-.445a.87.87 0 011.105.543v.002l2.797 8.221a.872.872 0 01-.544 1.106l-1.308.445-3.359-9.872zm5.809 11.196l-1.792.61-.235-.683 1.309-.445a2.197 2.197 0 001.37-2.784l-2.798-8.222A2.199 2.199 0 0041.231 25l-1.308.444-.231-.681 1.796-.608a2.405 2.405 0 013.05 1.502l3.124 9.188a2.407 2.407 0 01-1.501 3.05z" fill="#fff"/><path d="M21.752 45.47l2.289-13.082 1.303.228-2.289 13.083-1.303-.228zm3.528.62l1.283-7.78 1.305.214-1.283 7.782-1.305-.216zm-7.044-1.238l2.288-13.085 1.304.228-2.289 13.085-1.303-.228z" fill="#fff"/></svg>