<svg width="60" height="60" fill="none" xmlns="http://www.w3.org/2000/svg"><circle cx="30" cy="30" r="30" fill="#73732E"/><path d="M40.234 28.191a22.495 22.495 0 01-2.75-11.39c.082-3.007.748-4.995.754-5.015a.594.594 0 00-1.123-.384c-.03.086-.723 2.143-.817 5.318a23.681 23.681 0 002.894 12.041c.267.489.502.996.706 1.52l-1.607.385a37.473 37.473 0 01-17.34 0l-1.607-.384c.204-.525.439-1.032.706-1.52a23.681 23.681 0 002.894-12.042c-.094-3.175-.787-5.232-.817-5.318a.593.593 0 00-1.123.384c.006.02.672 2.008.754 5.015a22.494 22.494 0 01-2.75 11.39c-2.296 4.2-2.192 9.105-.937 13.704 1.07 3.917 2.715 6.699 2.784 6.816.107.18.301.289.51.289h16.512c.209 0 .402-.11.51-.29.07-.116 1.715-2.898 2.784-6.815 1.251-4.585 1.362-9.498-.937-13.704zm-1.666 3.63l1.712-.41c.185.638.325 1.3.422 1.98l-1.195.193a.594.594 0 00.188 1.172l1.131-.181c.035.528.05 1.014.03 1.641-3.523.758-9.06 2.297-11.235 5.194-2.173-2.894-7.704-4.434-11.235-5.194a15.822 15.822 0 01.03-1.641c4.398.625 8.936 1.877 16.014 1a.594.594 0 00-.146-1.178c-7.378.914-12.202-.585-15.744-1.005a14.48 14.48 0 01.422-1.98c2.067.493 3.604.897 6.154 1.196 4.5.526 9.077.258 13.452-.787zm-20.112 5.626c5.763 1.278 9.495 3.126 10.571 5.242v5.123h-7.315c-1.618-2.951-2.937-6.8-3.256-10.365zM37.53 47.813h-7.315v-5.124c1.076-2.116 4.808-3.964 10.571-5.242-.319 3.563-1.638 7.413-3.256 10.366z" fill="#fff"/><path d="M29.505 28.46a.594.594 0 10.231-1.165.594.594 0 00-.23 1.165zm-11.879-7.13a.594.594 0 10.987.658l1.131-1.694a.594.594 0 00-.009-.672l-1.13-1.6a.594.594 0 10-.97.686l.456.645h-2.497a.594.594 0 000 1.187h2.558l-.526.79zm26.022-1.847H41.09l.526-.788a.594.594 0 00-.987-.66l-1.13 1.694a.594.594 0 00.008.672l1.13 1.6a.593.593 0 10.97-.685l-.456-.645h2.497a.594.594 0 000-1.188zm-6.635 14.509a.593.593 0 100 1.187.594.594 0 000-1.187z" fill="#fff"/></svg>