<svg width="60" height="60" fill="none" xmlns="http://www.w3.org/2000/svg"><circle cx="30" cy="30" r="30" fill="#73732E"/><path d="M46.766 17.715h-1.99a.627.627 0 100 1.255h1.99a.627.627 0 100-1.255zm-11.161 3.026a6.37 6.37 0 00-6.361 6.363 6.368 6.368 0 006.36 6.361 6.37 6.37 0 006.364-6.36 6.37 6.37 0 00-6.363-6.364zm0 11.47a5.112 5.112 0 01-5.106-5.107 5.113 5.113 0 015.106-5.108 5.115 5.115 0 015.109 5.108 5.114 5.114 0 01-5.11 5.107z" fill="#fff"/><path d="M49.471 14.366h-7.62l-.738-2.039C40.994 12 40.633 11 39.61 11h-9.758c-1.023 0-1.385 1-1.504 1.328l-.737 2.038h-6.205V12.85a1.5 1.5 0 00-1.497-1.498h-2.795c-.824 0-1.495.672-1.495 1.498v1.543a2.354 2.354 0 00-1.992 2.324v12.83l-2.841.551a2.209 2.209 0 00-1.745 2.587l2.816 14.53a2.214 2.214 0 002.587 1.745l6.127-1.189a.627.627 0 00-.24-1.231l-6.125 1.188a.955.955 0 01-1.117-.752l-2.817-14.53a.953.953 0 01.753-1.116L26.3 28.367a.94.94 0 01.712.148.943.943 0 01.403.607l2.818 14.527a.953.953 0 01-.752 1.116l-6.13 1.189a.627.627 0 00.24 1.232l6.129-1.19a2.21 2.21 0 001.745-2.586l-.763-3.928h7.002a.627.627 0 100-1.255H30.46l-.66-3.407a9.658 9.658 0 005.805 1.942c4.185 0 7.757-2.676 9.095-6.407h5.865v6.775c0 .605-.49 1.097-1.094 1.097h-8.694a.627.627 0 100 1.255h8.694a2.353 2.353 0 002.349-2.352V16.717a2.353 2.353 0 00-2.349-2.351zm-19.943-1.611c.12-.332.23-.5.324-.5h9.758c.118 0 .241.272.324.5l.583 1.611H28.945l.583-1.611zm-3.58 14.35l.001.052-4.543.881v-2.93h4.75a9.663 9.663 0 00-.208 1.997zM16.873 12.85c0-.132.11-.243.241-.243h2.795c.134 0 .243.109.243.243v1.516h-3.279V12.85zm-1.991 3.867c0-.604.49-1.096 1.094-1.096h4.176v12.66l-2.124.412V21.62c0-.602-.49-1.092-1.092-1.092h-2.054v-3.81zm0 5.064h1.892v7.156l-1.892.367V21.78zm20.723 13.726a8.405 8.405 0 01-6.203-2.736l-.755-3.887a2.188 2.188 0 00-.931-1.409 2.23 2.23 0 00-.512-.257l-.002-.113c0-4.635 3.77-8.405 8.403-8.405 4.634 0 8.404 3.77 8.404 8.405 0 4.633-3.77 8.402-8.404 8.402zm14.96-6.406h-5.51a9.656 9.656 0 00.001-3.993h5.51v3.993zm0-5.247h-5.864c-1.338-3.732-4.91-6.409-9.096-6.409-4.185 0-7.756 2.677-9.094 6.409h-5.105V15.62h28.065c.603 0 1.094.492 1.094 1.096v7.137z" fill="#fff"/><path d="M28.002 42.76c.147-.22.2-.477.15-.723l-2.131-10.712c-.114-.56-.698-.902-1.332-.78L13.053 32.8c-.637.123-1.05.661-.942 1.231l2.133 10.705a.96.96 0 00.412.614c.191.13.426.197.67.197.083 0 .167-.008.251-.024l11.633-2.257a1.23 1.23 0 00.791-.506zm-13.42-2.777l-1.195-5.969 11.448-2.22.694 3.49-1.467.285c-2.8.543-3.73 1.381-4.628 2.192-.87.785-1.77 1.596-4.852 2.222zm.85 4.292l-.292-1.508-.312-1.555c3.424-.696 4.496-1.662 5.446-2.52.842-.759 1.57-1.415 4.027-1.891l1.473-.287 1.103 5.54-11.445 2.22z" fill="#fff"/></svg>