<svg width="12" height="12" fill="none" xmlns="http://www.w3.org/2000/svg"><mask id="mask0" maskUnits="userSpaceOnUse" x="0" y="0" width="12" height="12"><path fill="#C4C4C4" d="M0 0h12v12H0z"/></mask><g mask="url(#mask0)" fill="#73732E"><path d="M7 5.5a1.5 1.5 0 11-3 0 1.5 1.5 0 013 0z"/><path fill-rule="evenodd" clip-rule="evenodd" d="M2 5.5C2 8.125 5.5 11 5.5 11S9 8.125 9 5.5C9 3.565 7.435 2 5.5 2A3.497 3.497 0 002 5.5zm1 0C3 4.117 4.117 3 5.5 3S8 4.117 8 5.5c0 .93-.658 2.065-1.517 3.093-.347.415-.696.777-.983 1.056a13.97 13.97 0 01-.983-1.056C3.657 7.565 3 6.43 3 5.5z"/></g></svg>