<svg width="24" height="24" fill="none" xmlns="http://www.w3.org/2000/svg"><mask id="mask0" maskUnits="userSpaceOnUse" x="0" y="0" width="24" height="24"><path fill="#fff" d="M0 0h24v24H0z"/></mask><g mask="url(#mask0)"><path d="M23.984 2.264a.704.704 0 00-.938-.805L.452 10.084a.703.703 0 00-.002 1.313l6.347 2.45v7.722a.703.703 0 001.33.316l2.626-5.209 6.406 4.754c.39.29.95.105 1.091-.36 5.982-19.61 5.723-18.757 5.734-18.806zm-5.578 2.471L7.4 12.573l-4.735-1.829 15.742-6.009zM8.204 13.728l9.594-6.832c-8.256 8.709-7.824 8.25-7.86 8.299-.054.072.093-.209-1.734 3.416v-4.883zm8.993 5.979l-5.639-4.185L21.753 4.766l-4.557 14.94z" fill="#73732E"/></g></svg>