<svg width="10" height="10" fill="none" xmlns="http://www.w3.org/2000/svg"><path d="M8.577 0H1.423C.615 0 0 .615 0 1.423v7.154C0 9.385.615 10 1.423 10h7.154C9.385 10 10 9.385 10 8.577V1.423C10 .615 9.385 0 8.577 0zM5 8c1.654 0 3-1.308 3-2.885 0-.269-.038-.577-.115-.807h.846v4.077a.385.385 0 01-.385.384H1.654a.385.385 0 01-.385-.384V4.269h.885c-.077.27-.116.539-.116.808C2 6.692 3.346 8 5 8zm0-1.154c-1.077 0-1.923-.846-1.923-1.884 0-1.039.846-1.885 1.923-1.885s1.923.846 1.923 1.885c0 1.076-.846 1.884-1.923 1.884zm3.692-4.115c0 .23-.192.423-.423.423H7.192a.427.427 0 01-.423-.423V1.692c0-.23.193-.423.423-.423H8.27c.231 0 .423.193.423.423v1.039z" fill="#73732E"/></svg>