<svg width="12" height="12" fill="none" xmlns="http://www.w3.org/2000/svg"><mask id="mask0" maskUnits="userSpaceOnUse" x="0" y="0" width="12" height="12"><path fill="#C4C4C4" d="M0 0h12v12H0z"/></mask><g mask="url(#mask0)"><path d="M8.356 6.147a.5.5 0 00-.707 0l-.797.797c-.37-.11-1.059-.36-1.496-.797C4.92 5.71 4.67 5.02 4.56 4.65l.797-.797a.5.5 0 000-.707l-2-2a.5.5 0 00-.707 0L1.293 2.503A1 1 0 001 3.22c.012.712.2 3.185 2.15 5.134 1.948 1.95 4.421 2.137 5.134 2.15h.014A.988.988 0 009 10.21l1.356-1.356a.5.5 0 000-.707l-2-2zm-.063 3.356c-.624-.01-2.76-.178-4.437-1.856C2.173 5.964 2.01 3.82 2 3.21l1.003-1.003L4.296 3.5l-.647.647a.5.5 0 00-.136.456c.012.057.306 1.42 1.136 2.25.83.83 2.193 1.124 2.25 1.136a.496.496 0 00.457-.135l.647-.647L9.296 8.5 8.293 9.503z" fill="#73732E"/></g></svg>