<svg width="13" height="10" fill="none" xmlns="http://www.w3.org/2000/svg"><path d="M12.564 1.218c-.449.192-.961.32-1.474.385.513-.321.961-.834 1.154-1.41-.513.32-1.026.512-1.667.64A2.522 2.522 0 008.717 0a2.572 2.572 0 00-2.563 2.564c0 .192 0 .385.064.577A7.556 7.556 0 01.898.449 2.892 2.892 0 00.576 1.73c0 .897.449 1.666 1.154 2.115-.449 0-.834-.128-1.154-.32 0 1.218.897 2.307 2.051 2.5-.192.064-.449.064-.705.064-.192 0-.32 0-.513-.064A2.559 2.559 0 003.846 7.82C2.95 8.526 1.86 8.91.641 8.91c-.192 0-.385 0-.641-.065C1.154 9.551 2.5 10 3.974 10c4.744 0 7.308-3.91 7.308-7.308v-.32c.513-.193.962-.641 1.282-1.154z" fill="#73732E"/></svg>