<svg width="122" height="35" fill="none" xmlns="http://www.w3.org/2000/svg"><path d="M25.945 17.398c0-.776.143-1.515.43-2.218a5.943 5.943 0 011.188-1.852 5.415 5.415 0 011.835-1.25 5.792 5.792 0 012.32-.469c.938 0 1.738.125 2.4.375a6.263 6.263 0 011.905 1.141l-1.25 1.492c-.479-.406-.955-.708-1.43-.906-.468-.198-1.036-.297-1.702-.297-.672 0-1.29.18-1.852.54a3.75 3.75 0 00-1.312 1.452 4.302 4.302 0 00-.47 1.992c0 .766.157 1.451.47 2.055.312.604.757 1.08 1.335 1.43.584.344 1.25.515 2 .515 1.058 0 1.961-.28 2.711-.843v-2.102h-2.867v-1.71h4.766v4.702c-1.36 1.167-2.917 1.75-4.672 1.75-1.146 0-2.164-.252-3.055-.758a5.25 5.25 0 01-2.039-2.078c-.474-.88-.71-1.867-.71-2.96zM38.765 23v-8.445h1.93v1.898c.282-.666.672-1.185 1.172-1.555.464-.338 1.016-.507 1.656-.507h.164v2.046h-.109c-.875 0-1.575.287-2.101.86-.521.568-.782 1.396-.782 2.484V23h-1.93zm5.844-4.227c0-.802.175-1.536.524-2.203a4.052 4.052 0 011.476-1.601 3.95 3.95 0 012.133-.594 4.2 4.2 0 011.453.242c.443.156.82.375 1.133.656.318.282.586.615.805 1 .224.38.388.795.492 1.243.11.448.164.916.164 1.406 0 .234-.01.414-.031.539h-6.211c.104.677.375 1.206.812 1.586.443.375.982.562 1.618.562.458 0 .867-.08 1.226-.242.36-.166.714-.422 1.063-.765l1.14 1.007c-.875 1.058-2.028 1.586-3.46 1.586-.813 0-1.548-.182-2.204-.547a4.022 4.022 0 01-1.562-1.562c-.38-.677-.57-1.448-.57-2.313zm1.922-.585h4.336c-.067-.657-.289-1.19-.664-1.602-.37-.417-.862-.625-1.476-.625-.584 0-1.073.206-1.47.617-.39.406-.632.943-.726 1.61zm7.735.585c0-.802.174-1.536.523-2.203a4.05 4.05 0 011.477-1.601 3.951 3.951 0 012.132-.594c.526 0 1.01.08 1.454.242.442.156.82.375 1.132.656.318.282.586.615.805 1 .224.38.388.795.492 1.243.11.448.164.916.164 1.406 0 .234-.01.414-.03.539h-6.212c.104.677.375 1.206.813 1.586.442.375.981.562 1.617.562.458 0 .867-.08 1.226-.242.36-.166.714-.422 1.063-.765l1.14 1.007c-.874 1.058-2.028 1.586-3.46 1.586-.813 0-1.547-.182-2.204-.547a4.023 4.023 0 01-1.562-1.562c-.38-.677-.57-1.448-.57-2.313zm1.922-.585h4.335c-.067-.657-.289-1.19-.664-1.602-.37-.417-.862-.625-1.476-.625-.584 0-1.073.206-1.469.617-.39.406-.633.943-.727 1.61zM64.39 23v-8.445h1.93v1.312c.682-.995 1.562-1.492 2.64-1.492.943 0 1.68.294 2.21.883.532.583.798 1.372.798 2.367V23h-1.93v-4.797c0-.656-.159-1.164-.477-1.523-.317-.365-.763-.547-1.335-.547-.568 0-1.03.19-1.383.57-.35.375-.524.886-.524 1.531V23h-1.93zm9.39-1.633l1.188-1.406c.557.484 1.117.849 1.68 1.094.562.24 1.18.36 1.851.36.61 0 1.091-.128 1.445-.384.36-.26.54-.612.54-1.054 0-.282-.066-.514-.196-.696-.13-.187-.38-.364-.75-.531-.365-.172-.89-.338-1.578-.5a12.612 12.612 0 01-1.602-.469 4.992 4.992 0 01-1.148-.633 2.342 2.342 0 01-.75-.93c-.156-.369-.234-.812-.234-1.327 0-.959.356-1.74 1.07-2.344.719-.604 1.638-.906 2.758-.906 1.547 0 2.9.468 4.062 1.406l-1.055 1.492c-1.036-.77-2.049-1.156-3.039-1.156-.562 0-1.007.127-1.335.383-.329.255-.493.58-.493.976 0 .297.073.542.22.735.15.192.413.37.788.53.375.162.925.329 1.649.5 1.244.303 2.156.704 2.734 1.204.578.495.867 1.195.867 2.102 0 1.03-.37 1.846-1.11 2.445-.734.599-1.697.898-2.89.898-1.781 0-3.338-.596-4.672-1.789zm10.766 4.195V14.556h1.93v1.406c.75-1.057 1.705-1.586 2.867-1.586.505 0 .992.099 1.46.297.47.198.889.479 1.258.844.37.364.665.83.883 1.398.224.568.336 1.193.336 1.875 0 .677-.112 1.297-.336 1.86-.218.562-.513 1.025-.882 1.39a3.898 3.898 0 01-1.25.844 3.739 3.739 0 01-1.47.297c-1.156 0-2.111-.498-2.866-1.492v3.875h-1.93zm1.883-6.773c0 .792.242 1.44.726 1.945.485.506 1.065.758 1.742.758.683 0 1.256-.247 1.72-.742.463-.5.695-1.164.695-1.992 0-.797-.235-1.445-.704-1.945-.468-.506-1.039-.758-1.71-.758-.678 0-1.258.255-1.743.765-.484.51-.726 1.167-.726 1.97zm8.257 1.75c0-.906.313-1.594.938-2.062.63-.474 1.458-.711 2.484-.711.829 0 1.607.117 2.336.351v-.156c0-.589-.179-1.037-.539-1.344-.354-.312-.867-.469-1.539-.469-.76 0-1.565.178-2.414.532l-.531-1.555a8.32 8.32 0 011.516-.523 7.273 7.273 0 011.703-.18c1.229 0 2.153.31 2.773.93.625.614.938 1.494.938 2.64V23h-1.922v-1.04c-.683.813-1.594 1.22-2.735 1.22a3.738 3.738 0 01-1.492-.29 2.57 2.57 0 01-1.094-.906c-.28-.406-.421-.888-.421-1.445zm1.922-.07c0 .385.154.69.461.914.308.224.698.336 1.172.336.646 0 1.18-.164 1.602-.492.422-.334.633-.76.633-1.282v-.484c-.563-.224-1.209-.336-1.938-.336-.61 0-1.083.117-1.422.352-.338.234-.508.565-.508.992zm7.579-1.68c0-.792.187-1.523.562-2.195a4.253 4.253 0 011.57-1.617 4.332 4.332 0 012.25-.602c.756 0 1.401.125 1.938.375.541.25 1.023.61 1.445 1.078l-1.203 1.297a3.898 3.898 0 00-1-.781c-.339-.183-.737-.274-1.195-.274-.698 0-1.279.263-1.743.79-.458.525-.687 1.169-.687 1.93 0 .765.237 1.41.711 1.937.479.526 1.086.789 1.82.789.427 0 .815-.091 1.164-.274a4.08 4.08 0 001.024-.789l1.172 1.156a5.035 5.035 0 01-1.5 1.18c-.537.27-1.19.406-1.961.406a4.338 4.338 0 01-2.243-.593A4.235 4.235 0 01104.75 21a4.46 4.46 0 01-.562-2.21zm8.89-.016c0-.802.175-1.536.524-2.203a4.053 4.053 0 011.476-1.601 3.952 3.952 0 012.133-.594 4.2 4.2 0 011.453.242c.443.156.82.375 1.133.656.318.282.586.615.805 1 .224.38.388.795.492 1.243.109.448.164.916.164 1.406 0 .234-.011.414-.031.539h-6.211c.104.677.375 1.206.812 1.586.443.375.982.562 1.617.562.459 0 .867-.08 1.227-.242a3.84 3.84 0 001.062-.765l1.141 1.007c-.875 1.058-2.029 1.586-3.461 1.586-.812 0-1.547-.182-2.203-.547a4.029 4.029 0 01-1.563-1.562c-.38-.677-.57-1.448-.57-2.313zm1.922-.585h4.336c-.068-.657-.289-1.19-.664-1.602-.37-.417-.862-.625-1.477-.625-.583 0-1.073.206-1.468.617-.391.406-.633.943-.727 1.61z" fill="#5D482A"/><path d="M0 16.883c1.054-.575 2.06-1.277 3.174-1.693 1.322-.493 2.748.127 3.532 1.385.174.278.168.85-.005 1.129-.796 1.258-2.214 1.86-3.538 1.37-1.093-.404-2.087-1.087-3.122-1.646L0 16.883zm10.114 10.354c-1.205-1.368-2.133-2.503-2.185-4.094-.042-1.308.633-2.216 1.687-2.855.212-.129.658-.068.892.075 1.39.853 1.966 2.403 1.33 3.917-.413.983-1.074 1.864-1.724 2.957zM20 17.139c-1.269 1.101-2.422 2.056-4.057 2.053-1.245 0-3.026-1.263-2.98-2.097.05-.832 1.763-2.024 2.952-2.024 1.666 0 2.847.95 4.085 2.068zM10.13 7c.678 1.195 1.32 2.183 1.798 3.243.207.46.157 1.08.083 1.608-.132.952-1.476 2.386-2.079 2.326-.737-.074-1.921-1.64-1.996-2.657-.126-1.77.887-3.009 2.195-4.52zm.934 11.22c2.932.18 5.77 3.02 5.872 5.801-2.7.017-5.547-2.758-5.872-5.8zm-7.997 5.81c.074-2.756 2.923-5.625 5.775-5.81.066 3.048-3.444 5.892-5.775 5.81zm5.858-7.978c-2.949-.204-5.79-3.062-5.858-5.817 2.739.044 5.607 2.854 5.858 5.817zm8.027-5.889c-.165 2.915-3.009 5.75-5.806 5.87-.107-2.61 2.643-5.418 5.806-5.87z" fill="#BDBD4E"/></svg>